<?xml version="1.0" standalone="no"?>
<!DOCTYPE svg PUBLIC "-//W3C//DTD SVG 20010904//EN"
 "http://www.w3.org/TR/2001/REC-SVG-20010904/DTD/svg10.dtd">
<svg version="1.0" xmlns="http://www.w3.org/2000/svg"
 width="1600.000000pt" height="1387.000000pt" viewBox="0 0 1600.000000 1387.000000"
 preserveAspectRatio="xMidYMid meet">

<g transform="translate(0.000000,1387.000000) scale(0.100000,-0.100000)"
fill="#000000" stroke="none">
<path d="M7621 11976 c-152 -29 -266 -81 -383 -174 -185 -147 -292 -384 -260
-573 29 -167 97 -295 216 -406 93 -86 164 -128 283 -170 127 -43 230 -57 363
-49 179 10 291 40 430 115 217 117 343 332 344 586 0 176 -57 308 -189 440
-111 110 -240 182 -400 221 -87 21 -313 27 -404 10z m340 -247 c195 -64 330
-195 359 -351 7 -34 7 -79 0 -132 -30 -243 -234 -396 -529 -396 -160 0 -293
47 -393 139 -187 172 -190 436 -7 605 68 64 171 120 257 140 90 22 237 20 313
-5z m-749 -791 c42 -57 42 -64 -1 -23 -22 21 -41 43 -41 47 0 17 19 6 42 -24z"/>
<path d="M7720 11609 c-165 -32 -302 -173 -301 -310 1 -178 162 -313 376 -313
225 0 377 140 363 334 -12 161 -142 277 -328 293 -36 2 -85 1 -110 -4z"/>
<path d="M8580 10798 c-188 -206 -452 -317 -818 -344 l-94 -7 6 -30 c4 -17 28
-81 55 -141 27 -61 164 -374 304 -696 141 -322 274 -625 295 -675 22 -49 119
-274 217 -500 97 -225 192 -434 212 -463 49 -72 100 -106 304 -204 96 -47 204
-104 240 -128 177 -119 343 -273 460 -425 95 -124 259 -407 457 -785 33 -63
145 -279 249 -480 186 -357 779 -1497 893 -1715 31 -60 94 -182 140 -270 164
-318 169 -325 247 -325 94 0 136 52 110 137 -8 26 -121 284 -252 573 -289 640
-384 850 -745 1650 -155 344 -295 652 -310 685 -15 33 -37 80 -48 105 -29 65
-571 1267 -652 1445 -197 434 -622 1376 -721 1595 -277 619 -481 1060 -489
1059 -3 -1 -30 -28 -60 -61z m-302 -907 c3 -8 -1 -12 -9 -9 -7 2 -15 10 -17
17 -3 8 1 12 9 9 7 -2 15 -10 17 -17z m1068 -1075 c2 -14 0 -15 -12 -5 -17 14
-19 32 -2 27 6 -2 12 -12 14 -22z"/>
<path d="M6908 10781 c-13 -20 -40 -72 -60 -116 -20 -44 -53 -116 -73 -160
-60 -129 -737 -1628 -745 -1650 -4 -11 -24 -54 -43 -95 -111 -240 -891 -1971
-947 -2100 -17 -41 -40 -92 -50 -112 -17 -33 -716 -1578 -940 -2078 -50 -113
-102 -227 -115 -255 -114 -249 -185 -408 -200 -446 -16 -44 -16 -49 0 -82 22
-46 58 -70 107 -70 70 0 95 36 286 403 72 140 391 752 492 945 31 61 89 171
127 245 311 597 720 1376 843 1606 148 274 244 408 406 564 178 171 344 280
618 405 197 90 185 72 411 595 153 354 153 353 189 433 14 32 95 216 180 410
85 194 180 408 211 476 70 153 91 241 74 319 -20 97 -105 278 -205 434 -42 66
-44 68 -246 187 -112 66 -224 133 -250 149 l-47 30 -23 -37z"/>
<path d="M7605 7823 c-133 -17 -286 -63 -394 -118 -54 -27 -61 -38 -34 -54 10
-5 15 -13 10 -17 -4 -4 -16 1 -27 11 -19 17 -21 16 -68 -14 -56 -36 -152 -131
-217 -215 -66 -85 -138 -237 -186 -389 -22 -72 -56 -180 -74 -238 -36 -114
-81 -214 -122 -267 -24 -32 -91 -86 -116 -95 -7 -2 10 -28 40 -60 73 -81 103
-139 167 -329 122 -363 236 -563 417 -731 139 -130 305 -212 519 -258 147 -32
378 -32 495 0 95 25 220 83 305 141 62 42 189 161 228 213 l21 29 78 -67 c43
-37 88 -71 101 -76 27 -11 81 -12 146 -3 l46 7 0 506 c0 472 2 509 19 547 24
53 63 80 146 102 68 17 115 48 115 75 0 23 -216 30 -730 24 -418 -5 -458 -7
-487 -24 -18 -10 -33 -20 -33 -23 0 -14 84 -50 117 -50 64 0 123 -37 153 -94
22 -45 25 -61 24 -165 0 -99 -4 -127 -26 -191 -64 -183 -158 -284 -306 -330
-265 -82 -542 111 -635 440 -38 133 -49 372 -26 565 28 247 152 465 304 536
107 50 196 59 323 33 158 -32 292 -136 377 -293 21 -40 48 -77 59 -83 11 -6
101 -11 223 -11 162 0 207 3 218 14 11 11 15 91 21 369 6 329 6 356 -10 369
-15 13 -22 12 -51 -3 -19 -10 -46 -36 -61 -57 -26 -38 -28 -39 -88 -39 -94 1
-145 16 -190 58 -97 89 -230 168 -353 211 -123 42 -310 61 -438 44z"/>
<path d="M12277 6939 c-21 -5 -52 -16 -69 -25 -18 -9 -183 -168 -367 -353
-185 -186 -432 -431 -548 -545 -117 -114 -213 -211 -213 -216 0 -14 62 -140
68 -140 4 0 294 287 645 639 l639 638 -47 7 c-55 7 -58 7 -108 -5z"/>
<path d="M3402 6751 c-32 -6 -31 -7 507 -546 297 -296 542 -537 545 -534 3 2
18 34 34 70 l30 66 -467 466 c-462 461 -466 465 -519 476 -56 12 -77 12 -130
2z"/>
<path d="M3906 6657 c180 -187 678 -687 684 -687 3 0 15 24 27 53 21 50 233
523 286 640 15 32 27 62 27 66 0 27 -79 31 -593 31 l-530 -1 99 -102z"/>
<path d="M10739 6743 c-30 -8 -58 -18 -62 -22 -5 -5 9 -46 31 -92 21 -46 97
-213 168 -371 71 -159 131 -288 134 -288 3 0 182 177 397 393 l393 392 -504 1
c-397 1 -514 -2 -557 -13z m746 -76 c31 -51 30 -54 -8 -18 -20 19 -34 38 -31
43 9 14 19 9 39 -25z"/>
<path d="M5255 5963 c-88 -169 -176 -338 -195 -375 l-35 -69 1385 -1379 c762
-758 1387 -1379 1390 -1379 3 -1 619 613 1369 1363 l1363 1363 -69 129 c-39
71 -128 241 -199 377 l-129 249 -1170 -1178 -1171 -1177 -1189 1192 -1190
1191 -160 -307z m790 -456 c12 -10 15 -16 6 -21 -6 -4 -18 -1 -26 8 -27 27
-13 36 20 13z m2119 -2133 c9 -3 16 -15 16 -27 0 -19 -1 -20 -20 -2 -30 27
-28 41 4 29z"/>
<path d="M4903 5302 l-32 -58 1465 -1465 1464 -1464 1416 1415 c1599 1598
1464 1462 1464 1474 0 5 -17 40 -37 78 l-38 69 -1412 -1413 -1413 -1413 -1417
1417 c-780 780 -1420 1418 -1423 1418 -3 0 -19 -26 -37 -58z"/>
</g>
</svg>
